<svg data-v-423bf9ae="" xmlns="http://www.w3.org/2000/svg" viewBox="0 0 366 90" class="iconLeft"><!----><!----><!----><g data-v-423bf9ae="" id="a9a4e6de-11a2-4cc6-914e-7a0be6b38a03" fill="#B3B1C2" transform="matrix(5.190311431884766,0,0,5.190311431884766,109.74703979492188,-67.26644134521484)"><path d="M6.17 21.76L6.17 21.76Q7.08 21.76 7.61 21.24L7.61 21.24L7.61 21.24Q8.13 20.72 8.13 19.81L8.13 19.81L8.13 19.81Q8.13 18.56 7.51 17.77L7.51 17.77L7.51 17.77Q6.89 16.97 5.68 16.97L5.68 16.97L5.68 16.97Q4.76 16.97 4.03 17.49L4.03 17.49L4.03 25.93L6.26 26.52L5.94 27.15L0.81 27.15L0.81 26.64L2.13 25.61L2.13 17.23L0.64 16.76L0.97 16.13L2.73 16.13L2.73 16.13Q4.06 16.13 5.35 16.04L5.35 16.04L5.35 16.04Q6.33 15.99 6.78 15.99L6.78 15.99L6.78 15.99Q7.78 15.99 8.56 16.41L8.56 16.41L8.56 16.41Q9.34 16.83 9.77 17.55L9.77 17.55L9.77 17.55Q10.19 18.27 10.19 19.17L10.19 19.17L10.19 19.17Q10.19 20.15 9.46 21.02L9.46 21.02L9.46 21.02Q8.74 21.90 7.62 22.39L7.62 22.39L7.62 22.39Q6.50 22.88 5.42 22.82L5.42 22.82L4.77 22.37L5.10 21.74L6.16 21.74L6.17 21.76ZM17.99 15.85L17.99 15.85Q18.75 15.85 19.74 16.06L19.74 16.06L19.74 16.06Q20.73 16.27 21.20 16.51L21.20 16.51L21.20 19.28L20.50 19.28L20.50 19.28Q19.25 17.11 17.18 17.11L17.18 17.11L17.18 17.11Q16.28 17.11 15.55 17.64L15.55 17.64L15.55 17.64Q14.81 18.17 14.39 19.11L14.39 19.11L14.39 19.11Q13.96 20.05 13.96 21.21L13.96 21.21L13.96 21.21Q13.96 22.55 14.37 23.66L14.37 23.66L14.37 23.66Q14.78 24.77 15.64 25.43L15.64 25.43L15.64 25.43Q16.49 26.10 17.75 26.10L17.75 26.10L17.75 26.10Q18.97 26.10 21.21 24.39L21.21 24.39L21.66 25.10L19.08 27.10L19.08 27.10Q18.55 27.29 18.05 27.35L18.05 27.35L18.05 27.35Q17.54 27.41 16.97 27.41L16.97 27.41L16.97 27.41Q15.48 27.41 14.33 26.70L14.33 26.70L14.33 26.70Q13.17 25.98 12.54 24.73L12.54 24.73L12.54 24.73Q11.90 23.48 11.90 21.88L11.90 21.88L11.90 21.88Q11.90 20.24 12.87 18.85L12.87 18.85L12.87 18.85Q13.83 17.46 15.26 16.65L15.26 16.65L15.26 16.65Q16.69 15.85 17.99 15.85L17.99 15.85ZM34.79 26.50L34.48 27.13L30.03 27.13L30.03 26.63L31.40 25.63L30.37 23.14L25.72 23.14L24.65 25.62L27.06 26.50L26.74 27.13L22.43 27.13L22.43 26.63L23.79 25.58L27.68 16.58L29.33 15.86L33.39 25.69L34.79 26.50ZM30.07 22.41L28.10 17.64L26.04 22.41L30.07 22.41ZM49.36 26.52L49.06 27.15L44.66 27.15L44.66 26.64L45.98 25.61L45.98 18.07L42.29 27.15L41.43 27.15L37.76 17.98L37.76 25.80L39.24 26.52L38.93 27.15L35.59 27.15L35.59 26.64L36.90 25.61L36.90 17.51L35.42 16.76L35.74 16.13L38.96 16.13L42.39 24.71L45.82 16.13L49.21 16.13L49.21 16.63L47.88 17.67L47.88 26.03L49.36 26.52Z"></path></g><!----><g data-v-423bf9ae="" id="f71d8feb-c980-4889-9fd1-a591628be925" transform="matrix(1.3693625926971436,0,0,1.3693625926971436,-21.59519386291504,-20.642379760742188)" stroke="none" fill="#253591"><path d="M82.727 34.495l-9.245-16.013c-1.054-1.828-3.44-3.206-5.551-3.206H49.48c-1.293 0-2.345.536-2.885 1.471-.54.935-.479 2.114.167 3.234l2.629 4.561h-6.869c-2.11 0-4.496 1.378-5.551 3.205l-2.881 4.989-2.174-3.771c-1.849-3.206-1.849-3.206-2.735-3.206-.886 0-.886 0-2.736 3.205L17.2 44.977c-1.055 1.827-1.055 4.583 0 6.41L26.446 67.4c1.85 3.205 1.85 3.205 2.731 3.205.88 0 .88 0 2.732-3.203l2.182-3.774 2.881 4.989c1.055 1.827 3.441 3.205 5.551 3.205h6.787l-2.585 4.473c-.647 1.12-.709 2.299-.17 3.233.539.936 1.591 1.472 2.884 1.472h18.46c2.11 0 4.497-1.378 5.551-3.205l9.226-15.979c.646-1.12.708-2.3.168-3.234-.539-.936-1.591-1.472-2.884-1.473l-5.346-.004 3.302-5.719c1.055-1.827 1.055-4.582 0-6.41l-3.319-5.749 5.69.004h.038c3.327 0 3.33-.002 3.779-.714l.059-.101c.395-.748.395-.748-1.436-3.921zM29.311 65.9l-.134.231-.134-.231-9.246-16.014c-.515-.892-.515-2.517 0-3.41l9.246-16.013.137-.237.137.237 3.041 5.273-5.335 9.241c-1.055 1.827-1.055 4.583 0 6.409l5.336 9.241-3.048 5.273zm.31-16.013c-.515-.892-.515-2.517 0-3.409l4.468-7.739 4.472 7.755c.515.893.514 2.518-.002 3.41l-4.467 7.727-4.471-7.744zm9.948 17.23l-3.746-6.487 5.333-9.225c1.056-1.827 1.057-4.582.003-6.41l-5.337-9.258 3.748-6.491c.042-.073.099-.144.151-.215l11.051 19.167-11.056 19.126c-.051-.068-.106-.136-.147-.207zm40.389-7.008c.087 0 .157.007.213.016-.02.052-.05.116-.093.191l-9.226 15.979C70.337 77.188 68.93 78 67.899 78h-18.46c-.085 0-.155-.006-.209-.015.02-.052.049-.115.092-.188l3.454-5.975h9.642c2.11 0 4.497-1.378 5.551-3.205l4.915-8.513 7.074.005zM54.51 68.822l4.059-7.022c.515-.892 1.923-1.703 2.954-1.703l7.897.006-4.05 7.015c-.516.893-1.923 1.705-2.953 1.705H54.51zm20.808-18.935l-4.167 7.217-9.63-.007c-2.109 0-4.495 1.376-5.551 3.201l-4.928 8.524h-8.521c-.063 0-.131-.012-.196-.018L53.368 49.7l22.028.014c-.025.058-.047.12-.078.173zm0-3.41c.042.073.075.157.11.238l-22.058-.014-11.036-19.142c.062-.005.128-.017.188-.017h8.599l4.884 8.47c1.054 1.828 3.439 3.207 5.549 3.208l9.578.006 4.186 7.251zM54.584 27.542h7.833c1.03 0 2.438.812 2.953 1.705l4.029 6.979-7.844-.005c-1.03 0-2.438-.814-2.952-1.707l-4.019-6.972zm18.28 8.686l-4.896-8.48c-1.054-1.828-3.44-3.206-5.551-3.206h-9.562l-3.494-6.059a1.403 1.403 0 0 1-.093-.191c.055-.009.125-.015.212-.015h18.451c1.03 0 2.438.812 2.953 1.705l9.245 16.013.137.238-7.402-.005z"></path></g><!----></svg>