<svg data-v-fde0c5aa="" xmlns="http://www.w3.org/2000/svg" viewBox="0 0 300 300" class="font"><!----><defs data-v-fde0c5aa=""><!----></defs><rect data-v-fde0c5aa="" fill="transparent" x="0" y="0" width="300px" height="300px" class="logo-background-square"></rect><defs data-v-fde0c5aa=""><!----></defs><g data-v-fde0c5aa="" id="51274758-8806-4523-8bb6-1aed16284aad" fill="#B3B1C2" transform="matrix(4.515599250793457,0,0,4.515599250793457,37.110016557367345,52.327588137356656)"><path d="M6.17 21.76L6.17 21.76Q7.08 21.76 7.61 21.24L7.61 21.24L7.61 21.24Q8.13 20.72 8.13 19.81L8.13 19.81L8.13 19.81Q8.13 18.56 7.51 17.77L7.51 17.77L7.51 17.77Q6.89 16.97 5.68 16.97L5.68 16.97L5.68 16.97Q4.76 16.97 4.03 17.49L4.03 17.49L4.03 25.93L6.26 26.52L5.94 27.15L0.81 27.15L0.81 26.64L2.13 25.61L2.13 17.23L0.64 16.76L0.97 16.13L2.73 16.13L2.73 16.13Q4.06 16.13 5.35 16.04L5.35 16.04L5.35 16.04Q6.33 15.99 6.78 15.99L6.78 15.99L6.78 15.99Q7.78 15.99 8.56 16.41L8.56 16.41L8.56 16.41Q9.34 16.83 9.77 17.55L9.77 17.55L9.77 17.55Q10.19 18.27 10.19 19.17L10.19 19.17L10.19 19.17Q10.19 20.15 9.46 21.02L9.46 21.02L9.46 21.02Q8.74 21.90 7.62 22.39L7.62 22.39L7.62 22.39Q6.50 22.88 5.42 22.82L5.42 22.82L4.77 22.37L5.10 21.74L6.16 21.74L6.17 21.76ZM17.99 15.85L17.99 15.85Q18.75 15.85 19.74 16.06L19.74 16.06L19.74 16.06Q20.73 16.27 21.20 16.51L21.20 16.51L21.20 19.28L20.50 19.28L20.50 19.28Q19.25 17.11 17.18 17.11L17.18 17.11L17.18 17.11Q16.28 17.11 15.55 17.64L15.55 17.64L15.55 17.64Q14.81 18.17 14.39 19.11L14.39 19.11L14.39 19.11Q13.96 20.05 13.96 21.21L13.96 21.21L13.96 21.21Q13.96 22.55 14.37 23.66L14.37 23.66L14.37 23.66Q14.78 24.77 15.64 25.43L15.64 25.43L15.64 25.43Q16.49 26.10 17.75 26.10L17.75 26.10L17.75 26.10Q18.97 26.10 21.21 24.39L21.21 24.39L21.66 25.10L19.08 27.10L19.08 27.10Q18.55 27.29 18.05 27.35L18.05 27.35L18.05 27.35Q17.54 27.41 16.97 27.41L16.97 27.41L16.97 27.41Q15.48 27.41 14.33 26.70L14.33 26.70L14.33 26.70Q13.17 25.98 12.54 24.73L12.54 24.73L12.54 24.73Q11.90 23.48 11.90 21.88L11.90 21.88L11.90 21.88Q11.90 20.24 12.87 18.85L12.87 18.85L12.87 18.85Q13.83 17.46 15.26 16.65L15.26 16.65L15.26 16.65Q16.69 15.85 17.99 15.85L17.99 15.85ZM34.79 26.50L34.48 27.13L30.03 27.13L30.03 26.63L31.40 25.63L30.37 23.14L25.72 23.14L24.65 25.62L27.06 26.50L26.74 27.13L22.43 27.13L22.43 26.63L23.79 25.58L27.68 16.58L29.33 15.86L33.39 25.69L34.79 26.50ZM30.07 22.41L28.10 17.64L26.04 22.41L30.07 22.41ZM49.36 26.52L49.06 27.15L44.66 27.15L44.66 26.64L45.98 25.61L45.98 18.07L42.29 27.15L41.43 27.15L37.76 17.98L37.76 25.80L39.24 26.52L38.93 27.15L35.59 27.15L35.59 26.64L36.90 25.61L36.90 17.51L35.42 16.76L35.74 16.13L38.96 16.13L42.39 24.71L45.82 16.13L49.21 16.13L49.21 16.63L47.88 17.67L47.88 26.03L49.36 26.52Z"></path></g><!----><!----></svg>